<svg xmlns="http://www.w3.org/2000/svg" xmlns:xlink="http://www.w3.org/1999/xlink" width="32pt" height="32pt" viewBox="0 0 32 32" version="1.1">
<g id="surface1">
<path style=" stroke:none;fill-rule:nonzero;fill:rgb(22.352941%,22.352941%,22.352941%);fill-opacity:1;" d="M 31.660156 13.003906 L 16.492188 1.898438 C 16.199219 1.683594 15.800781 1.683594 15.507812 1.898438 L 0.339844 13.003906 C -0.03125 13.273438 -0.109375 13.796875 0.160156 14.167969 C 0.433594 14.535156 0.953125 14.617188 1.324219 14.347656 L 16 3.597656 L 30.675781 14.34375 C 30.824219 14.453125 30.996094 14.507812 31.167969 14.507812 C 31.421875 14.507812 31.675781 14.386719 31.839844 14.164062 C 32.109375 13.796875 32.03125 13.273438 31.660156 13.003906 Z M 31.660156 13.003906 "/>
<path style=" stroke:none;fill-rule:nonzero;fill:rgb(22.352941%,22.352941%,22.352941%);fill-opacity:1;" d="M 27.640625 14.535156 C 27.179688 14.535156 26.808594 14.90625 26.808594 15.367188 L 26.808594 28.601562 L 20.15625 28.601562 L 20.15625 21.375 C 20.15625 19.082031 18.292969 17.21875 16 17.21875 C 13.707031 17.21875 11.84375 19.082031 11.84375 21.375 L 11.84375 28.601562 L 5.191406 28.601562 L 5.191406 15.367188 C 5.191406 14.90625 4.820312 14.535156 4.359375 14.535156 C 3.902344 14.535156 3.527344 14.90625 3.527344 15.367188 L 3.527344 29.429688 C 3.527344 29.890625 3.902344 30.261719 4.359375 30.261719 L 12.675781 30.261719 C 13.109375 30.261719 13.46875 29.925781 13.503906 29.496094 C 13.503906 29.476562 13.503906 29.457031 13.503906 29.429688 L 13.503906 21.375 C 13.503906 20 14.625 18.882812 16 18.882812 C 17.375 18.882812 18.496094 20 18.496094 21.375 L 18.496094 29.429688 C 18.496094 29.457031 18.496094 29.476562 18.496094 29.496094 C 18.53125 29.925781 18.886719 30.261719 19.324219 30.261719 L 27.640625 30.261719 C 28.101562 30.261719 28.472656 29.890625 28.472656 29.429688 L 28.472656 15.367188 C 28.472656 14.90625 28.097656 14.535156 27.640625 14.535156 Z M 27.640625 14.535156 "/>
</g>
</svg>
