<svg version="1.1"
	 id="Слой_1" image-rendering="optimizeQuality" shape-rendering="geometricPrecision" text-rendering="geometricPrecision"
	 xmlns="http://www.w3.org/2000/svg" xmlns:xlink="http://www.w3.org/1999/xlink" x="0px" y="0px" viewBox="0 0 240.2 54"
	 style="enable-background:new 0 0 240.2 54;" xml:space="preserve">
<style type="text/css">
	.st0{fill:#FFFFFF;}
</style>
<g id="Слой_x0020_1">
	<path class="st0" d="M4.7,18.8c-0.8,2.3-2.6,3-4.7,3l2.1,3.7c3.1,0,5.4-3.3,6.4-6.3l4-12.3l4.9,14.3c0.1,0.4,0.3,0.9,0.3,1.4
		c0,1.2-0.7,1.7-1.5,2.3v0.1h11.2v0v-0.1c-2.1-2-2.3-2.8-3.1-5.2L19.3,6.1c-1.4-3.9-1.6-4.8-1.6-5.5H8.6v0.1C9.4,1.2,10,1.9,10,2.8
		c0,0.8-0.6,2.3-0.8,3C9.2,5.8,4.7,18.8,4.7,18.8z M46.5,20.9V12c0-1.8-0.1-2.8,1.3-4V7.9h-8V8l-4.7,8.3V12c0-1.7-0.1-2.8,1.3-4V7.9
		h-9V8c1.4,1.1,1.3,2.2,1.3,4v13.5c1.2,0,3.1-0.6,4.8-1.5c1.1-0.6,1.7-1.3,2.6-2.9l3.9-6.9v6.8c0,1.7,0.1,2.8-1.3,4v0.1h9v-0.1
		C46.4,23.7,46.5,22.6,46.5,20.9z M57.3,20.9v-9.6c0.4,0,1.1-0.1,2.4-0.1c1.3,0,2.5,0.4,3,1.6V7.9H49.6V8c1.4,1.1,1.3,2.2,1.3,4v8.9
		c0,1.7,0.1,2.8-1.3,4v0.1h9v-0.1C57.2,23.7,57.3,22.6,57.3,20.9z M81.7,25.3l1.5-3.2C80,22,80.1,20,80.1,17.5v-3
		c0-2.1-0.2-4.3-2-5.7c-1.4-1.1-3.4-1.4-5.1-1.4c-1.6,0-3.1,0.1-4.7,0.5l-1.7,4.2c1.4-0.7,3.1-1.2,4.7-1.2c0.9,0,2.4,0.4,2.4,1.6
		c0,3.1-10.2,0.9-10.2,7.7c0,1.7,1,3.4,2.4,4.3c1.1,0.7,2.7,0.9,4,0.9l1.9-0.1l1.6-3.2c-0.3,0-0.5,0.1-0.7,0.1
		c-1.3,0-2.3-1.1-2.3-2.4c0-1.2,1.2-1.8,2.1-2.2l1.2-0.6v1.2c0,2.2-0.1,3.9,1.6,5.5c1.4,1.3,3.1,1.7,5,1.7
		C80.2,25.4,81.7,25.3,81.7,25.3z M113.8,20.9V12c0-1.8-0.1-2.8,1.3-4V7.9h-8V8l-4.7,8.3V12c0-1.7-0.1-2.8,1.3-4V7.9h-9V8
		c1.4,1.1,1.3,2.2,1.3,4v13.5c1.2,0,3.1-0.6,4.8-1.5c1.1-0.6,1.7-1.3,2.6-2.9l3.9-6.9v6.8c0,1.7,0.1,2.8-1.3,4v0.1h9v-0.1
		C113.7,23.7,113.8,22.6,113.8,20.9z M135.3,20.9V12c0-1.7-0.1-2.8,1.3-4V7.9h-9V8c1.4,1.1,1.3,2.2,1.3,4v2.3h-4.2V12
		c0-1.7-0.1-2.8,1.3-4V7.9h-9V8c1.4,1.1,1.3,2.2,1.3,4v8.9c0,1.7,0.1,2.8-1.3,4v0.1h9v-0.1c-1.4-1.1-1.3-2.2-1.3-4v-3.4h4.2v3.4
		c0,1.7,0.1,2.8-1.3,4v0.1h9v-0.1C135.2,23.7,135.3,22.6,135.3,20.9z M157.1,8.8V0H157c-1,0.6-1.9,0.6-3.1,0.6h-4.5v0.1
		c1.4,1.1,1.2,2.2,1.3,4v4.1c-1.1-0.9-2.7-1.3-4.5-1.3c-5.1,0-7.8,3.8-7.8,8.7c0,2.3,0.7,4.8,2.2,6.5c1.7,2.1,4,2.8,6.7,2.8l1.6-0.1
		l1.3-3.4c-0.4,0.1-0.7,0.1-1.1,0.1c-3.2,0-3.7-2.7-3.7-5.3c0-1.9,0.4-5.4,3-5.4c1.6,0,2.1,1.2,2.4,2.3v15.1c0,1.7,0.1,2.8-1.3,4
		v0.1h9v-0.1c-1.4-1.1-1.3-2.2-1.3-4V13.5c0.3-1.1,0.8-2.3,2.4-2.3c2.6,0,3,3.5,3,5.4c0,2.6-0.5,5.3-3.7,5.3c-0.4,0-0.8-0.1-1.1-0.1
		l1.3,3.4l1.6,0.1c2.7,0,4.9-0.6,6.7-2.8c1.5-1.8,2.2-4.3,2.2-6.5c0-4.8-2.8-8.7-7.8-8.7C159.9,7.4,158.2,7.9,157.1,8.8L157.1,8.8z
		 M171.5,16.6c0,5.5,4,8.8,9.3,8.8c5.6,0,9.8-3.4,9.8-9.2c0-2.5-1.1-5.1-3.1-6.7c-1.8-1.6-4.1-2.1-6.5-2.1
		C175.5,7.4,171.5,10.9,171.5,16.6L171.5,16.6z M184.4,17c0,2.2-0.4,5-3.2,5c-3.3,0-3.6-3.9-3.6-6.4c0-2.2,0.6-4.6,3.3-4.6
		C183.9,11,184.4,14.7,184.4,17z M200.1,9.7V7.4H200c-0.7,0.4-1.6,0.6-2.5,0.6h-5V8c1.4,1.2,1.3,2.3,1.3,4v16.6c0,1.7,0.1,2.8-1.3,4
		v0.1h9v-0.1c-1.4-1.1-1.3-2.2-1.3-4v-13c0-2,0-4.4,2.6-4.4c2.6,0,3,3.5,3,5.4c0,2.6-0.5,5.3-3.7,5.3c-0.4,0-0.8-0.1-1.1-0.1
		l1.3,3.4l1.6,0.1c2.7,0,4.9-0.6,6.7-2.8c1.5-1.8,2.2-4.3,2.2-6.5c0-4.8-2.8-8.7-7.8-8.7C203,7.4,201.2,8.1,200.1,9.7L200.1,9.7z
		 M230.4,7.9V8l-3.2,8.8L223.6,8V7.9h-7.5V8c1,0.8,1.2,1.5,1.1,2.7l-1.4,10.2c-0.2,1.4-0.5,3.3-1.5,4v0.1h6v-0.1
		c-0.8-0.4-1.4-1.2-1.3-2.3l0.9-7.9l2.4,6.1c0.5,1.2,0.9,2.3,2.1,3.3c0.9,0.7,1.5,0.9,2.6,1.2l0.5,0.1l3.9-10.7l0.9,8
		c0.1,0.9-0.3,1.7-0.9,2.1v0.1h8.7v-0.1c-1-0.8-1.3-2.3-1.6-4.3l-1.3-10.5c-0.1-1,0.2-1.5,1-2.1V7.9L230.4,7.9L230.4,7.9z"/>
	<path class="st0" d="M58.9,50.3c0,0.3-0.1,0.5-0.2,0.6c-0.2,0.2-0.4,0.2-0.6,0.2h-4V38.9h4c0.3,0,0.5,0.1,0.6,0.2
		c0.2,0.2,0.2,0.4,0.2,0.6v3.6c0,0.3-0.1,0.6-0.4,0.8c-0.3,0.2-0.6,0.3-0.9,0.5l0.9,0.6c0.3,0.2,0.4,0.4,0.4,0.8
		C58.9,46.1,58.9,50.3,58.9,50.3z M57.8,43.5v-3.7h-2.7v4.4h1.6C56.7,44.3,57.8,43.5,57.8,43.5z M57.8,50.2v-4.2l-1.1-0.7h-1.6v4.9
		C55.1,50.2,57.8,50.2,57.8,50.2z M64.9,51.1h-1v-0.2c-0.4,0-0.8,0.1-1.2,0.1c-0.5,0.1-0.9,0.1-1.2,0.1c-0.6,0-0.9-0.3-0.9-0.8v-2.8
		c0-0.6,0.3-0.9,0.9-0.9h2.4v-2.3h-2.2v1.3h-1v-1.3c0-0.6,0.3-0.9,0.9-0.9H64c0.6,0,0.9,0.3,0.9,0.9C64.9,44.4,64.9,51.1,64.9,51.1z
		 M63.9,50.2v-2.7h-2.3v2.7H63.9z M69.8,50.1v-6.6h1.1v6.6h2.1v-6.6H74v7.6h-7.4v-7.6h1.1v6.6H69.8z M80.1,51.1H79v-7.6h3.9v1h-2.8
		V51.1z M84.4,43.5h1v6l3.2-6h0.8v7.6h-1v-5.7l-3.3,5.7h-0.8C84.4,51.1,84.4,43.5,84.4,43.5z M98.1,52.7h-1v-1.6h-5.1v1.6h-1v-2.6h1
		l0.5-3.8l0.2-2.8H97v6.6h1V52.7z M93.5,46.3l-0.5,3.8h3v-5.6l-2.2,0L93.5,46.3z M107.5,50.2c0,0.3-0.1,0.5-0.3,0.6
		c-0.2,0.2-0.4,0.2-0.6,0.2h-4l0-7.6h3.6c0.2,0,0.5,0.1,0.6,0.3c0.2,0.2,0.2,0.4,0.2,0.6V46c0,0.3-0.3,0.7-0.9,1.3l0.9,0.6
		c0.3,0.2,0.4,0.4,0.4,0.8L107.5,50.2L107.5,50.2z M105.9,46.1l0-1.6h-2.2v2.4h1.6L105.9,46.1z M106.4,50.2v-1.6l-1.1-0.7h-1.6v2.4
		H106.4L106.4,50.2z M118.5,51.1h-1v-4.9c0-0.1,0-0.4,0.1-1l-2,4.7h-0.2l-2-4.7c0.1,0.5,0.1,0.9,0.1,1v4.9h-1v-7.6h1l2,4.4
		c0,0,0,0.2,0,0.3c0-0.1,0-0.2,0-0.3l2-4.4h1L118.5,51.1L118.5,51.1z M120.4,43.5h1v6l3.2-6h0.8v7.6h-1v-5.7l-3.3,5.7h-0.8
		L120.4,43.5L120.4,43.5z M131.6,49.5c0,0.5-0.2,0.9-0.5,1.2c-0.3,0.3-0.7,0.5-1.2,0.5h-1.7V54h-1V43.5h1v0.2
		c0.4-0.1,0.8-0.1,1.2-0.2c0.5-0.1,0.9-0.1,1.2-0.1c0.6,0,0.9,0.3,0.9,0.9L131.6,49.5L131.6,49.5z M130.6,49.3v-4.9l-2.3,0.1v5.7
		h1.4C130.3,50.2,130.6,49.9,130.6,49.3L130.6,49.3z M137.3,50.2c0,0.6-0.3,0.9-0.9,0.9h-2.5c-0.6,0-0.9-0.3-0.9-0.9v-5.8
		c0-0.6,0.3-0.9,0.9-0.9h2.5c0.6,0,0.9,0.3,0.9,0.9v2.7l-0.3,0.4h-2.9v2.8h2.2v-1.4h1L137.3,50.2L137.3,50.2z M136.3,46.7v-2.3h-2.2
		l0,2.3H136.3z M146.1,50.2c0,0.6-0.3,0.9-0.9,0.9h-2.5c-0.6,0-0.9-0.3-0.9-0.9v-5.8c0-0.6,0.3-0.9,0.9-0.9h2.5
		c0.6,0,0.9,0.3,0.9,0.9v1.5h-1v-1.5h-2.2v5.8h2.2v-1.7h1V50.2z M152.1,50.3c0,0.6-0.3,0.9-0.9,0.9h-2.6c-0.6,0-0.9-0.3-0.9-0.9
		v-5.8c0-0.6,0.3-0.9,0.9-0.9h2.6c0.6,0,0.9,0.3,0.9,0.9V50.3z M151.1,50.2v-5.8h-2.3v5.8H151.1z M153.8,41.3c0-0.6,0.3-0.9,0.9-0.9
		h3.5v0.9h-3.3v2.2h2.4c0.6,0,0.9,0.3,0.9,0.9v5.9c0,0.5-0.3,0.8-0.9,0.8l-2.5-0.2v0.2h-1C153.8,51.1,153.8,41.3,153.8,41.3z
		 M157.1,44.4h-2.3v5.8c0.1,0,0.3,0.1,0.5,0.1c0.2,0,0.3,0.1,0.5,0.1c0.2,0,0.3,0,0.5,0.1c0.2,0,0.3,0,0.4,0c0.1,0,0.2-0.1,0.3-0.1
		c0.1-0.1,0.1-0.1,0.1-0.3C157.1,50,157.1,44.4,157.1,44.4z M164.8,50.3c0,0.3-0.1,0.5-0.3,0.6c-0.2,0.2-0.4,0.2-0.6,0.2h-4v-7.6
		h1.1V47h2.9c0.3,0,0.5,0.1,0.6,0.2c0.2,0.2,0.2,0.4,0.2,0.6L164.8,50.3L164.8,50.3z M161,47.9v2.2h2.7v-2.2
		C163.7,47.9,161,47.9,161,47.9z M166.7,51.1h-1v-7.6h1V51.1z M172.9,44.5H171v6.6h-1.1l0-6.6H168v-1h4.9V44.5z M174.1,43.5h1v6
		l3.2-6h0.8v7.6h-1v-5.7l-3.3,5.7h-0.8L174.1,43.5L174.1,43.5z M181.1,43.5h1v6l3.2-6h0.8v7.6h-1v-5.7l-3.3,5.7h-0.8
		C181.1,51.1,181.1,43.5,181.1,43.5z M184.7,42.9c0,0.3-0.2,0.4-0.5,0.4h-1c-0.3,0-0.5-0.1-0.5-0.4v-0.6h0.5v0.6h0.9v-0.6h0.5
		L184.7,42.9L184.7,42.9z M189.3,38.9l-0.2,9.5h-0.7l-0.2-9.5H189.3z M189.3,51.1h-1.2v-1.4h1.2V51.1z"/>
</g>
</svg>
