<svg id="Слой_1" data-name="Слой 1" xmlns="http://www.w3.org/2000/svg" viewBox="0 0 240.2 32.6"><defs><style>.cls-1{fill:#ff9e4a;}</style></defs><title>logo-orange</title><g id="Слой_1-2" data-name="Слой_1"><path class="cls-1" d="M4.7,18.8c-.8,2.3-2.6,3-4.7,3l2.1,3.7c3.1,0,5.4-3.3,6.4-6.3l4-12.3,4.9,14.3a5.77,5.77,0,0,1,.3,1.4c0,1.2-.7,1.7-1.5,2.3V25H27.4v-.1c-2.1-2-2.3-2.8-3.1-5.2l-5-13.6C17.9,2.2,17.7,1.3,17.7.6H8.6V.7A2.56,2.56,0,0,1,10,2.8a14.71,14.71,0,0,1-.8,3Zm41.8,2.1V12c0-1.8-.1-2.8,1.3-4V7.9h-8V8l-4.7,8.3V12c0-1.7-.1-2.8,1.3-4V7.9h-9V8c1.4,1.1,1.3,2.2,1.3,4V25.5A11.86,11.86,0,0,0,33.5,24a6.26,6.26,0,0,0,2.6-2.9L40,14.2V21c0,1.7.1,2.8-1.3,4v.1h9V25C46.4,23.7,46.5,22.6,46.5,20.9Zm10.8,0V11.3c.4,0,1.1-.1,2.4-.1a3,3,0,0,1,3,1.6V7.9H49.6V8c1.4,1.1,1.3,2.2,1.3,4v8.9c0,1.7.1,2.8-1.3,4V25h9v-.1C57.2,23.7,57.3,22.6,57.3,20.9Zm24.4,4.4,1.5-3.2C80,22,80.1,20,80.1,17.5v-3c0-2.1-.2-4.3-2-5.7A8.39,8.39,0,0,0,73,7.4a18.8,18.8,0,0,0-4.7.5l-1.7,4.2a10.91,10.91,0,0,1,4.7-1.2c.9,0,2.4.4,2.4,1.6,0,3.1-10.2.9-10.2,7.7a5.32,5.32,0,0,0,2.4,4.3,7.85,7.85,0,0,0,4,.9l1.9-.1,1.6-3.2c-.3,0-.5.1-.7.1a2.35,2.35,0,0,1-2.3-2.4c0-1.2,1.2-1.8,2.1-2.2l1.2-.6v1.2c0,2.2-.1,3.9,1.6,5.5a6.94,6.94,0,0,0,5,1.7Zm32.1-4.4V12c0-1.8-.1-2.8,1.3-4V7.9h-8V8l-4.7,8.3V12c0-1.7-.1-2.8,1.3-4V7.9h-9V8c1.4,1.1,1.3,2.2,1.3,4V25.5a11.86,11.86,0,0,0,4.8-1.5,6.26,6.26,0,0,0,2.6-2.9l3.9-6.9V21c0,1.7.1,2.8-1.3,4v.1h9V25C113.7,23.7,113.8,22.6,113.8,20.9Zm21.5,0V12c0-1.7-.1-2.8,1.3-4V7.9h-9V8c1.4,1.1,1.3,2.2,1.3,4v2.3h-4.2V12c0-1.7-.1-2.8,1.3-4V7.9h-9V8c1.4,1.1,1.3,2.2,1.3,4v8.9c0,1.7.1,2.8-1.3,4V25h9v-.1c-1.4-1.1-1.3-2.2-1.3-4V17.5h4.2v3.4c0,1.7.1,2.8-1.3,4V25h9v-.1C135.2,23.7,135.3,22.6,135.3,20.9ZM157.1,8.8V0H157a5.42,5.42,0,0,1-3.1.6h-4.5V.7c1.4,1.1,1.2,2.2,1.3,4V8.8a7.08,7.08,0,0,0-4.5-1.3c-5.1,0-7.8,3.8-7.8,8.7a10,10,0,0,0,2.2,6.5c1.7,2.1,4,2.8,6.7,2.8l1.6-.1,1.3-3.4a4.1,4.1,0,0,1-1.1.1c-3.2,0-3.7-2.7-3.7-5.3,0-1.9.4-5.4,3-5.4,1.6,0,2.1,1.2,2.4,2.3V28.8c0,1.7.1,2.8-1.3,4v.1h9v-.1c-1.4-1.1-1.3-2.2-1.3-4V13.5c.3-1.1.8-2.3,2.4-2.3,2.6,0,3,3.5,3,5.4,0,2.6-.5,5.3-3.7,5.3-.4,0-.8-.1-1.1-.1l1.3,3.4,1.6.1c2.7,0,4.9-.6,6.7-2.8a10.42,10.42,0,0,0,2.2-6.5c0-4.8-2.8-8.7-7.8-8.7a8.21,8.21,0,0,0-4.7,1.5Zm14.4,7.8c0,5.5,4,8.8,9.3,8.8,5.6,0,9.8-3.4,9.8-9.2a8.69,8.69,0,0,0-3.1-6.7A9.43,9.43,0,0,0,181,7.4c-5.5,0-9.5,3.5-9.5,9.2Zm12.9.4c0,2.2-.4,5-3.2,5-3.3,0-3.6-3.9-3.6-6.4,0-2.2.6-4.6,3.3-4.6C183.9,11,184.4,14.7,184.4,17Zm15.7-7.3V7.4H200a5.14,5.14,0,0,1-2.5.6h-5c1.4,1.2,1.3,2.3,1.3,4V28.6c0,1.7.1,2.8-1.3,4v.1h9v-.1c-1.4-1.1-1.3-2.2-1.3-4v-13c0-2,0-4.4,2.6-4.4s3,3.5,3,5.4c0,2.6-.5,5.3-3.7,5.3-.4,0-.8-.1-1.1-.1l1.3,3.4,1.6.1c2.7,0,4.9-.6,6.7-2.8a10.42,10.42,0,0,0,2.2-6.5c0-4.8-2.8-8.7-7.8-8.7a6,6,0,0,0-4.9,2.4Zm30.3-1.8V8l-3.2,8.8L223.6,8V7.9h-7.5V8a2.64,2.64,0,0,1,1.1,2.7l-1.4,10.2c-.2,1.4-.5,3.3-1.5,4V25h6v-.1a2.27,2.27,0,0,1-1.3-2.3l.9-7.9,2.4,6.1a7.43,7.43,0,0,0,2.1,3.3,6.2,6.2,0,0,0,2.6,1.2l.5.1,3.9-10.7.9,8a2.22,2.22,0,0,1-.9,2.1v.1h8.7v-.1c-1-.8-1.3-2.3-1.6-4.3L237.2,10a2,2,0,0,1,1-2.1h-7.8Z"/></g></svg>