<svg version="1.1"
	 id="Слой_1" image-rendering="optimizeQuality" shape-rendering="geometricPrecision" text-rendering="geometricPrecision"
	 xmlns="http://www.w3.org/2000/svg" xmlns:xlink="http://www.w3.org/1999/xlink" x="0px" y="0px" viewBox="0 0 240.2 32.6"
	 style="enable-background:new 0 0 240.2 32.6;" xml:space="preserve">
<style type="text/css">
	.st0{fill:#FFFFFF;}
</style>
<g id="Слой_x0020_1">
	<path class="st0" d="M4.7,18.8c-0.8,2.3-2.6,3-4.7,3l2.1,3.7c3.1,0,5.4-3.3,6.4-6.3l4-12.3l4.9,14.3c0.1,0.4,0.3,0.9,0.3,1.4
		c0,1.2-0.7,1.7-1.5,2.3v0.1h11.2v0v-0.1c-2.1-2-2.3-2.8-3.1-5.2L19.3,6.1c-1.4-3.9-1.6-4.8-1.6-5.5H8.6v0.1C9.4,1.2,10,1.9,10,2.8
		c0,0.8-0.6,2.3-0.8,3C9.2,5.8,4.7,18.8,4.7,18.8z M46.5,20.9V12c0-1.8-0.1-2.8,1.3-4V7.9h-8V8l-4.7,8.3V12c0-1.7-0.1-2.8,1.3-4V7.9
		h-9V8c1.4,1.1,1.3,2.2,1.3,4v13.5c1.2,0,3.1-0.6,4.8-1.5c1.1-0.6,1.7-1.3,2.6-2.9l3.9-6.9v6.8c0,1.7,0.1,2.8-1.3,4v0.1h9v-0.1
		C46.4,23.7,46.5,22.6,46.5,20.9z M57.3,20.9v-9.6c0.4,0,1.1-0.1,2.4-0.1c1.3,0,2.5,0.4,3,1.6V7.9H49.6V8c1.4,1.1,1.3,2.2,1.3,4v8.9
		c0,1.7,0.1,2.8-1.3,4v0.1h9v-0.1C57.2,23.7,57.3,22.6,57.3,20.9z M81.7,25.3l1.5-3.2C80,22,80.1,20,80.1,17.5v-3
		c0-2.1-0.2-4.3-2-5.7c-1.4-1.1-3.4-1.4-5.1-1.4c-1.6,0-3.1,0.1-4.7,0.5l-1.7,4.2c1.4-0.7,3.1-1.2,4.7-1.2c0.9,0,2.4,0.4,2.4,1.6
		c0,3.1-10.2,0.9-10.2,7.7c0,1.7,1,3.4,2.4,4.3c1.1,0.7,2.7,0.9,4,0.9l1.9-0.1l1.6-3.2c-0.3,0-0.5,0.1-0.7,0.1
		c-1.3,0-2.3-1.1-2.3-2.4c0-1.2,1.2-1.8,2.1-2.2l1.2-0.6v1.2c0,2.2-0.1,3.9,1.6,5.5c1.4,1.3,3.1,1.7,5,1.7
		C80.2,25.4,81.7,25.3,81.7,25.3z M113.8,20.9V12c0-1.8-0.1-2.8,1.3-4V7.9h-8V8l-4.7,8.3V12c0-1.7-0.1-2.8,1.3-4V7.9h-9V8
		c1.4,1.1,1.3,2.2,1.3,4v13.5c1.2,0,3.1-0.6,4.8-1.5c1.1-0.6,1.7-1.3,2.6-2.9l3.9-6.9v6.8c0,1.7,0.1,2.8-1.3,4v0.1h9v-0.1
		C113.7,23.7,113.8,22.6,113.8,20.9z M135.3,20.9V12c0-1.7-0.1-2.8,1.3-4V7.9h-9V8c1.4,1.1,1.3,2.2,1.3,4v2.3h-4.2V12
		c0-1.7-0.1-2.8,1.3-4V7.9h-9V8c1.4,1.1,1.3,2.2,1.3,4v8.9c0,1.7,0.1,2.8-1.3,4v0.1h9v-0.1c-1.4-1.1-1.3-2.2-1.3-4v-3.4h4.2v3.4
		c0,1.7,0.1,2.8-1.3,4v0.1h9v-0.1C135.2,23.7,135.3,22.6,135.3,20.9z M157.1,8.8V0H157c-1,0.6-1.9,0.6-3.1,0.6h-4.5v0.1
		c1.4,1.1,1.2,2.2,1.3,4v4.1c-1.1-0.9-2.7-1.3-4.5-1.3c-5.1,0-7.8,3.8-7.8,8.7c0,2.3,0.7,4.8,2.2,6.5c1.7,2.1,4,2.8,6.7,2.8l1.6-0.1
		l1.3-3.4c-0.4,0.1-0.7,0.1-1.1,0.1c-3.2,0-3.7-2.7-3.7-5.3c0-1.9,0.4-5.4,3-5.4c1.6,0,2.1,1.2,2.4,2.3v15.1c0,1.7,0.1,2.8-1.3,4
		v0.1h9v-0.1c-1.4-1.1-1.3-2.2-1.3-4V13.5c0.3-1.1,0.8-2.3,2.4-2.3c2.6,0,3,3.5,3,5.4c0,2.6-0.5,5.3-3.7,5.3c-0.4,0-0.8-0.1-1.1-0.1
		l1.3,3.4l1.6,0.1c2.7,0,4.9-0.6,6.7-2.8c1.5-1.8,2.2-4.3,2.2-6.5c0-4.8-2.8-8.7-7.8-8.7C159.9,7.4,158.2,7.9,157.1,8.8L157.1,8.8z
		 M171.5,16.6c0,5.5,4,8.8,9.3,8.8c5.6,0,9.8-3.4,9.8-9.2c0-2.5-1.1-5.1-3.1-6.7c-1.8-1.6-4.1-2.1-6.5-2.1
		C175.5,7.4,171.5,10.9,171.5,16.6L171.5,16.6z M184.4,17c0,2.2-0.4,5-3.2,5c-3.3,0-3.6-3.9-3.6-6.4c0-2.2,0.6-4.6,3.3-4.6
		C183.9,11,184.4,14.7,184.4,17z M200.1,9.7V7.4H200c-0.7,0.4-1.6,0.6-2.5,0.6h-5V8c1.4,1.2,1.3,2.3,1.3,4v16.6c0,1.7,0.1,2.8-1.3,4
		v0.1h9v-0.1c-1.4-1.1-1.3-2.2-1.3-4v-13c0-2,0-4.4,2.6-4.4c2.6,0,3,3.5,3,5.4c0,2.6-0.5,5.3-3.7,5.3c-0.4,0-0.8-0.1-1.1-0.1
		l1.3,3.4l1.6,0.1c2.7,0,4.9-0.6,6.7-2.8c1.5-1.8,2.2-4.3,2.2-6.5c0-4.8-2.8-8.7-7.8-8.7C203,7.4,201.2,8.1,200.1,9.7L200.1,9.7z
		 M230.4,7.9V8l-3.2,8.8L223.6,8V7.9h-7.5V8c1,0.8,1.2,1.5,1.1,2.7l-1.4,10.2c-0.2,1.4-0.5,3.3-1.5,4v0.1h6v-0.1
		c-0.8-0.4-1.4-1.2-1.3-2.3l0.9-7.9l2.4,6.1c0.5,1.2,0.9,2.3,2.1,3.3c0.9,0.7,1.5,0.9,2.6,1.2l0.5,0.1l3.9-10.7l0.9,8
		c0.1,0.9-0.3,1.7-0.9,2.1v0.1h8.7v-0.1c-1-0.8-1.3-2.3-1.6-4.3l-1.3-10.5c-0.1-1,0.2-1.5,1-2.1V7.9L230.4,7.9L230.4,7.9z"/>
</g>
</svg>
