<svg xmlns="http://www.w3.org/2000/svg" xmlns:xlink="http://www.w3.org/1999/xlink" width="32pt" height="32pt" viewBox="0 0 32 32" version="1.1">
<g id="surface1">
<path style=" stroke:none;fill-rule:nonzero;fill:rgb(22.352941%,22.352941%,22.352941%);fill-opacity:1;" d="M 30.9375 29.136719 L 23.574219 21.773438 C 25.398438 19.550781 26.5 16.699219 26.5 13.59375 C 26.5 6.46875 20.71875 0.6875 13.59375 0.6875 C 6.460938 0.6875 0.6875 6.46875 0.6875 13.59375 C 0.6875 20.71875 6.460938 26.5 13.59375 26.5 C 16.699219 26.5 19.542969 25.40625 21.769531 23.582031 L 29.132812 30.9375 C 29.632812 31.4375 30.4375 31.4375 30.9375 30.9375 C 31.4375 30.445312 31.4375 29.632812 30.9375 29.136719 Z M 13.59375 23.929688 C 7.886719 23.929688 3.25 19.292969 3.25 13.59375 C 3.25 7.894531 7.886719 3.25 13.59375 3.25 C 19.292969 3.25 23.9375 7.894531 23.9375 13.59375 C 23.9375 19.292969 19.292969 23.929688 13.59375 23.929688 Z M 13.59375 23.929688 "/>
</g>
</svg>
